<svg xmlns="http://www.w3.org/2000/svg" xmlns:xlink="http://www.w3.org/1999/xlink" width="400" zoomAndPan="magnify" viewBox="0 0 300 299.999988" height="400" preserveAspectRatio="xMidYMid meet" version="1.0"><defs><clipPath id="4ca2807084"><path d="M 48 36 L 217 36 L 217 263.785156 L 48 263.785156 Z M 48 36 " clip-rule="nonzero"/></clipPath><clipPath id="63ccccd7e6"><path d="M 0 35.785156 L 142 35.785156 L 142 257 L 0 257 Z M 0 35.785156 " clip-rule="nonzero"/></clipPath></defs><g clip-path="url(#4ca2807084)"><path fill="#55beff" d="M 175.785156 254.644531 C 172.695312 254.644531 170.1875 252.136719 170.1875 249.046875 C 170.1875 245.953125 172.695312 243.449219 175.785156 243.449219 C 178.878906 243.449219 181.390625 245.953125 181.390625 249.046875 C 181.390625 252.136719 178.878906 254.644531 175.785156 254.644531 Z M 201.292969 97.363281 C 198.199219 97.363281 195.691406 94.855469 195.691406 91.765625 C 195.691406 88.671875 198.199219 86.167969 201.292969 86.167969 C 204.386719 86.167969 206.894531 88.675781 206.894531 91.765625 C 206.894531 94.855469 204.386719 97.363281 201.292969 97.363281 Z M 175.785156 234.335938 C 170.777344 234.335938 166.355469 236.839844 163.695312 240.664062 L 70.761719 240.550781 L 173.839844 60.414062 L 188.203125 85.050781 C 187.164062 87.0625 186.574219 89.34375 186.574219 91.765625 C 186.574219 99.886719 193.164062 106.472656 201.292969 106.472656 C 209.421875 106.472656 216.007812 99.886719 216.007812 91.765625 C 216.007812 84.042969 210.054688 77.714844 202.480469 77.109375 L 179.105469 38.386719 C 179.105469 38.386719 172.191406 31.578125 164.363281 45.15625 L 51.203125 241.425781 C 51.203125 241.425781 41.421875 255.714844 57.21875 256.464844 L 163.082031 256.464844 C 165.636719 260.824219 170.367188 263.753906 175.785156 263.753906 C 183.914062 263.753906 190.503906 257.167969 190.503906 249.046875 C 190.503906 240.921875 183.914062 234.335938 175.785156 234.335938 Z M 175.785156 234.335938 " fill-opacity="1" fill-rule="nonzero"/></g><path fill="#a7dbfa" d="M 167.5625 131.675781 C 180.449219 131.367188 223.351562 129.996094 230.363281 133.519531 C 234.3125 135.503906 239.121094 145.71875 241.550781 149.40625 C 256.78125 172.496094 297.226562 242.175781 297.226562 242.175781 C 297.226562 242.175781 305.5 253.457031 293.460938 256.464844 L 228.761719 256.464844 C 228.761719 256.464844 225 257.421875 220.484375 249.046875 L 194.152344 203.074219 L 132.136719 203.074219 L 132.117188 203.105469 L 114.203125 203.105469 C 123.863281 186.570312 143.476562 153.175781 156.808594 131.675781 Z M 167.5625 131.675781 " fill-opacity="1" fill-rule="nonzero"/><g clip-path="url(#63ccccd7e6)"><path fill="#55beff" d="M 14.828125 247.644531 C 17.921875 247.644531 20.429688 245.140625 20.429688 242.046875 C 20.429688 238.953125 17.921875 236.449219 14.828125 236.449219 C 11.734375 236.449219 9.226562 238.953125 9.226562 242.046875 C 9.226562 245.140625 11.734375 247.644531 14.828125 247.644531 Z M 119.179688 62.757812 C 119.226562 62.785156 119.273438 62.816406 119.320312 62.847656 Z M 123.332031 64.625 C 123.398438 64.640625 123.464844 64.660156 123.535156 64.675781 Z M 123.914062 64.757812 C 123.957031 64.769531 124 64.777344 124.046875 64.789062 C 124 64.777344 123.957031 64.769531 123.914062 64.757812 Z M 127.007812 65.085938 L 103.050781 106.953125 L 28.195312 236.539062 L 28.191406 236.523438 C 28.847656 238.1875 29.207031 240.003906 29.207031 241.902344 C 29.207031 250.027344 22.617188 256.609375 14.488281 256.609375 C 9.070312 256.609375 4.339844 253.679688 1.785156 249.320312 L 1.652344 249.320312 C 0.386719 247.136719 -0.335938 244.605469 -0.335938 241.902344 C -0.335938 238.789062 0.621094 235.902344 2.261719 233.519531 L 2.398438 233.519531 C 5.058594 229.695312 9.480469 227.191406 14.488281 227.191406 C 14.742188 227.191406 14.996094 227.199219 15.246094 227.210938 L 15.238281 227.210938 L 113.578125 56.652344 L 113.621094 56.746094 C 112.699219 54.816406 112.183594 52.65625 112.183594 50.378906 C 112.183594 47.265625 113.144531 44.378906 114.785156 41.996094 L 114.921875 41.996094 C 117.582031 38.171875 122.003906 35.667969 127.011719 35.667969 C 135.140625 35.667969 141.726562 42.253906 141.726562 50.378906 C 141.726562 58.5 135.140625 65.085938 127.011719 65.085938 Z M 28.167969 236.464844 C 28.132812 236.382812 28.101562 236.300781 28.066406 236.21875 C 28.101562 236.300781 28.132812 236.382812 28.167969 236.464844 Z M 28.03125 236.132812 C 27.996094 236.054688 27.960938 235.972656 27.925781 235.894531 C 27.960938 235.972656 27.996094 236.054688 28.03125 236.132812 Z M 27.898438 235.832031 C 27.855469 235.738281 27.808594 235.640625 27.765625 235.546875 C 27.808594 235.640625 27.855469 235.738281 27.898438 235.832031 Z M 27.730469 235.476562 C 27.691406 235.402344 27.65625 235.324219 27.617188 235.25 C 27.65625 235.324219 27.691406 235.402344 27.730469 235.476562 Z M 27.574219 235.167969 C 27.53125 235.085938 27.488281 235 27.445312 234.917969 C 27.488281 235 27.53125 235.085938 27.574219 235.167969 Z M 27.425781 234.882812 C 27.375 234.789062 27.324219 234.695312 27.269531 234.605469 C 27.324219 234.699219 27.375 234.789062 27.425781 234.882812 Z M 27.226562 234.53125 C 27.1875 234.460938 27.144531 234.390625 27.101562 234.324219 C 27.144531 234.390625 27.1875 234.460938 27.226562 234.53125 Z M 27.054688 234.242188 C 27 234.15625 26.949219 234.070312 26.890625 233.980469 C 26.949219 234.070312 27 234.15625 27.054688 234.242188 Z M 26.886719 233.972656 C 26.828125 233.882812 26.773438 233.796875 26.714844 233.710938 C 26.769531 233.796875 26.828125 233.882812 26.886719 233.972656 Z M 26.660156 233.632812 C 26.613281 233.566406 26.570312 233.5 26.523438 233.433594 C 26.570312 233.5 26.613281 233.566406 26.660156 233.632812 Z M 26.472656 233.363281 C 26.410156 233.277344 26.351562 233.191406 26.285156 233.105469 C 26.351562 233.191406 26.410156 233.277344 26.472656 233.363281 Z M 26.261719 233.074219 C 26.207031 233 26.148438 232.925781 26.089844 232.851562 C 26.148438 232.925781 26.207031 233 26.261719 233.074219 Z M 26.035156 232.78125 C 25.984375 232.714844 25.929688 232.652344 25.878906 232.589844 C 25.929688 232.652344 25.984375 232.714844 26.035156 232.78125 Z M 25.832031 232.53125 C 25.761719 232.449219 25.695312 232.367188 25.625 232.285156 C 25.695312 232.367188 25.761719 232.449219 25.832031 232.53125 Z M 25.585938 232.242188 C 25.53125 232.179688 25.472656 232.113281 25.414062 232.050781 C 25.472656 232.113281 25.53125 232.179688 25.585938 232.242188 Z M 25.347656 231.976562 C 25.292969 231.914062 25.234375 231.851562 25.171875 231.789062 C 25.234375 231.851562 25.289062 231.914062 25.347656 231.976562 Z M 25.132812 231.742188 C 25.058594 231.667969 24.984375 231.59375 24.910156 231.519531 C 24.984375 231.59375 25.058594 231.667969 25.132812 231.742188 Z M 24.851562 231.460938 C 24.796875 231.402344 24.738281 231.347656 24.679688 231.292969 C 24.738281 231.347656 24.796875 231.402344 24.851562 231.460938 Z M 24.613281 231.226562 C 24.542969 231.160156 24.472656 231.097656 24.402344 231.03125 C 24.472656 231.097656 24.542969 231.160156 24.613281 231.226562 Z M 24.378906 231.011719 C 24.300781 230.941406 24.222656 230.871094 24.144531 230.800781 C 24.222656 230.871094 24.300781 230.941406 24.378906 231.011719 Z M 24.074219 230.742188 C 24.015625 230.691406 23.953125 230.636719 23.890625 230.585938 C 23.953125 230.636719 24.015625 230.691406 24.074219 230.742188 Z M 23.570312 230.328125 C 23.492188 230.265625 23.410156 230.203125 23.324219 230.140625 C 23.40625 230.203125 23.488281 230.265625 23.570312 230.328125 Z M 23.25 230.082031 C 23.183594 230.035156 23.117188 229.988281 23.054688 229.941406 C 23.117188 229.988281 23.183594 230.035156 23.25 230.082031 Z M 22.984375 229.890625 C 22.898438 229.832031 22.8125 229.769531 22.726562 229.710938 C 22.8125 229.769531 22.898438 229.832031 22.984375 229.890625 Z M 22.679688 229.683594 C 22.609375 229.632812 22.535156 229.585938 22.457031 229.535156 C 22.535156 229.585938 22.609375 229.632812 22.679688 229.683594 Z M 22.375 229.484375 C 22.304688 229.4375 22.234375 229.394531 22.164062 229.351562 C 22.234375 229.394531 22.304688 229.4375 22.375 229.484375 Z M 22.105469 229.3125 C 22.011719 229.257812 21.921875 229.207031 21.832031 229.152344 C 21.921875 229.207031 22.011719 229.257812 22.105469 229.3125 Z M 21.761719 229.113281 C 21.691406 229.074219 21.617188 229.03125 21.546875 228.992188 C 21.617188 229.03125 21.691406 229.074219 21.761719 229.113281 Z M 21.460938 228.949219 C 21.386719 228.90625 21.308594 228.863281 21.230469 228.824219 C 21.308594 228.863281 21.386719 228.90625 21.460938 228.949219 Z M 21.175781 228.796875 C 21.082031 228.75 20.984375 228.703125 20.890625 228.65625 C 20.988281 228.699219 21.082031 228.75 21.175781 228.796875 Z M 20.816406 228.621094 C 20.742188 228.585938 20.667969 228.550781 20.59375 228.515625 C 20.667969 228.550781 20.742188 228.585938 20.816406 228.621094 Z M 20.507812 228.476562 C 20.417969 228.4375 20.332031 228.398438 20.242188 228.363281 C 20.332031 228.398438 20.421875 228.4375 20.507812 228.476562 Z M 20.210938 228.347656 C 20.113281 228.304688 20.015625 228.265625 19.914062 228.226562 C 20.015625 228.265625 20.113281 228.304688 20.210938 228.347656 Z M 19.832031 228.195312 C 19.753906 228.164062 19.675781 228.132812 19.597656 228.105469 C 19.675781 228.132812 19.753906 228.164062 19.832031 228.195312 Z M 19.519531 228.074219 C 19.417969 228.039062 19.3125 228 19.210938 227.96875 C 19.3125 228 19.417969 228.039062 19.519531 228.074219 Z M 19.191406 227.960938 C 19.09375 227.929688 19 227.898438 18.90625 227.867188 C 19 227.898438 19.09375 227.929688 19.191406 227.960938 Z M 18.808594 227.835938 C 18.730469 227.8125 18.652344 227.792969 18.578125 227.769531 C 18.65625 227.792969 18.730469 227.816406 18.808594 227.835938 Z M 18.488281 227.742188 C 18.386719 227.714844 18.28125 227.6875 18.175781 227.660156 C 18.28125 227.6875 18.386719 227.714844 18.488281 227.742188 Z M 18.125 227.648438 C 18.035156 227.625 17.945312 227.601562 17.855469 227.582031 C 17.945312 227.601562 18.035156 227.625 18.125 227.648438 Z M 17.761719 227.558594 C 17.675781 227.539062 17.589844 227.519531 17.503906 227.503906 C 17.589844 227.519531 17.675781 227.539062 17.761719 227.558594 Z M 17.4375 227.488281 C 17.328125 227.46875 17.21875 227.445312 17.109375 227.425781 C 17.21875 227.445312 17.328125 227.46875 17.4375 227.488281 Z M 17.042969 227.414062 C 16.957031 227.398438 16.867188 227.386719 16.78125 227.371094 C 16.867188 227.386719 16.957031 227.398438 17.042969 227.414062 Z M 16.683594 227.355469 C 16.589844 227.34375 16.496094 227.328125 16.398438 227.316406 C 16.496094 227.328125 16.589844 227.34375 16.683594 227.355469 Z M 16.351562 227.308594 C 16.242188 227.296875 16.128906 227.285156 16.019531 227.273438 C 16.128906 227.285156 16.242188 227.296875 16.351562 227.308594 Z M 15.9375 227.265625 C 15.851562 227.253906 15.765625 227.25 15.679688 227.242188 C 15.765625 227.25 15.851562 227.257812 15.9375 227.265625 Z M 15.582031 227.234375 C 15.472656 227.226562 15.363281 227.21875 15.253906 227.214844 C 15.363281 227.21875 15.472656 227.226562 15.582031 227.234375 Z M 113.734375 56.980469 C 113.765625 57.042969 113.796875 57.101562 113.824219 57.160156 C 113.792969 57.101562 113.765625 57.042969 113.734375 56.980469 Z M 114.121094 57.707031 C 114.140625 57.738281 114.15625 57.765625 114.171875 57.796875 Z M 127.011719 55.976562 C 130.105469 55.976562 132.613281 53.472656 132.613281 50.378906 C 132.613281 47.285156 130.105469 44.78125 127.011719 44.78125 C 123.917969 44.78125 121.410156 47.285156 121.410156 50.378906 C 121.410156 53.472656 123.917969 55.976562 127.011719 55.976562 Z M 127.007812 65.089844 C 126.925781 65.089844 126.839844 65.085938 126.757812 65.085938 L 126.753906 65.085938 C 126.671875 65.085938 126.589844 65.082031 126.503906 65.078125 L 126.5 65.078125 C 126.417969 65.078125 126.335938 65.074219 126.253906 65.070312 L 126.25 65.070312 C 126.167969 65.066406 126.085938 65.058594 126.003906 65.054688 L 126 65.054688 C 125.917969 65.046875 125.835938 65.042969 125.753906 65.035156 L 125.75 65.035156 C 125.667969 65.027344 125.589844 65.019531 125.507812 65.011719 L 125.503906 65.011719 C 125.421875 65.003906 125.339844 64.996094 125.257812 64.984375 L 125.253906 64.984375 C 125.175781 64.976562 125.09375 64.964844 125.015625 64.953125 L 125.011719 64.953125 C 124.929688 64.941406 124.847656 64.929688 124.769531 64.917969 L 124.765625 64.917969 C 124.6875 64.90625 124.605469 64.894531 124.527344 64.878906 L 124.523438 64.878906 C 124.445312 64.863281 124.363281 64.851562 124.285156 64.835938 L 124.28125 64.835938 C 124.203125 64.820312 124.125 64.804688 124.042969 64.789062 Z M 26.535156 230.628906 L 26.539062 230.632812 C 26.621094 230.699219 26.703125 230.765625 26.785156 230.832031 L 26.851562 230.886719 Z M 26.535156 230.628906 " fill-opacity="1" fill-rule="nonzero"/></g></svg>