<svg xmlns="http://www.w3.org/2000/svg" xmlns:xlink="http://www.w3.org/1999/xlink" width="1600" zoomAndPan="magnify" viewBox="0 0 1200 299.999988" height="400" preserveAspectRatio="xMidYMid meet" version="1.0"><defs><g/><clipPath id="4f6393bfea"><path d="M 150 125 L 394.5 125 L 394.5 291 L 150 291 Z M 150 125 " clip-rule="nonzero"/></clipPath></defs><path fill="#45abeb" d="M 231.160156 287.964844 C 227.09375 287.964844 223.792969 284.667969 223.792969 280.601562 C 223.792969 276.53125 227.09375 273.234375 231.160156 273.234375 C 235.226562 273.234375 238.527344 276.53125 238.527344 280.601562 C 238.527344 284.667969 235.226562 287.964844 231.160156 287.964844 Z M 264.699219 81.027344 C 260.632812 81.027344 257.335938 77.730469 257.335938 73.664062 C 257.335938 69.59375 260.632812 66.296875 264.699219 66.296875 C 268.769531 66.296875 272.066406 69.597656 272.066406 73.664062 C 272.066406 77.730469 268.769531 81.027344 264.699219 81.027344 Z M 231.160156 261.246094 C 224.570312 261.246094 218.757812 264.542969 215.261719 269.570312 L 93.054688 269.425781 L 228.597656 32.414062 L 247.484375 64.828125 C 246.121094 67.476562 245.347656 70.480469 245.347656 73.664062 C 245.347656 84.351562 254.011719 93.015625 264.699219 93.015625 C 275.386719 93.015625 284.050781 84.351562 284.050781 73.664062 C 284.050781 63.5 276.21875 55.175781 266.261719 54.378906 L 235.523438 3.433594 C 235.523438 3.433594 226.433594 -5.527344 216.136719 12.339844 L 67.328125 270.574219 C 67.328125 270.574219 54.46875 289.371094 75.246094 290.359375 L 214.453125 290.359375 C 217.8125 296.097656 224.03125 299.953125 231.160156 299.953125 C 241.847656 299.953125 250.511719 291.289062 250.511719 280.601562 C 250.511719 269.914062 241.847656 261.246094 231.160156 261.246094 Z M 231.160156 261.246094 " fill-opacity="1" fill-rule="nonzero"/><g clip-path="url(#4f6393bfea)"><path fill="#a7dbfa" d="M 220.347656 126.171875 C 237.292969 125.765625 293.707031 123.960938 302.929688 128.601562 C 308.117188 131.214844 314.441406 144.652344 317.636719 149.503906 C 337.664062 179.882812 390.855469 271.5625 390.855469 271.5625 C 390.855469 271.5625 401.734375 286.402344 385.902344 290.359375 L 300.820312 290.359375 C 300.820312 290.359375 295.875 291.617188 289.9375 280.601562 L 255.308594 220.113281 L 173.761719 220.113281 L 173.734375 220.152344 L 150.175781 220.152344 C 162.878906 198.402344 188.675781 154.460938 206.203125 126.175781 L 220.347656 126.175781 Z M 220.347656 126.171875 " fill-opacity="1" fill-rule="nonzero"/></g><path fill="#45abeb" d="M 19.496094 278.757812 C 23.566406 278.757812 26.863281 275.460938 26.863281 271.390625 C 26.863281 267.324219 23.566406 264.027344 19.496094 264.027344 C 15.429688 264.027344 12.132812 267.324219 12.132812 271.390625 C 12.132812 275.460938 15.429688 278.757812 19.496094 278.757812 Z M 156.722656 35.496094 C 156.78125 35.535156 156.84375 35.574219 156.90625 35.617188 Z M 162.183594 37.953125 C 162.269531 37.976562 162.359375 38 162.445312 38.023438 Z M 162.945312 38.132812 C 163.003906 38.144531 163.0625 38.15625 163.121094 38.167969 C 163.0625 38.15625 163.003906 38.144531 162.945312 38.132812 Z M 167.015625 38.5625 L 135.511719 93.648438 L 37.078125 264.144531 L 37.070312 264.121094 C 37.933594 266.316406 38.40625 268.703125 38.40625 271.199219 C 38.40625 281.890625 29.742188 290.554688 19.054688 290.554688 C 11.925781 290.554688 5.703125 286.695312 2.347656 280.957031 L 2.171875 280.957031 C 0.507812 278.089844 -0.445312 274.757812 -0.445312 271.199219 C -0.445312 267.105469 0.820312 263.304688 2.976562 260.171875 L 3.15625 260.171875 C 6.652344 255.140625 12.464844 251.847656 19.054688 251.847656 C 19.386719 251.847656 19.71875 251.855469 20.046875 251.871094 L 20.039062 251.871094 L 149.355469 27.464844 L 149.410156 27.585938 C 148.203125 25.046875 147.523438 22.207031 147.523438 19.210938 C 147.523438 15.117188 148.785156 11.316406 150.941406 8.179688 L 151.121094 8.179688 C 154.617188 3.152344 160.433594 -0.144531 167.019531 -0.144531 C 177.707031 -0.144531 186.371094 8.523438 186.371094 19.210938 C 186.371094 29.898438 177.707031 38.5625 167.019531 38.5625 Z M 37.039062 264.042969 C 36.996094 263.9375 36.953125 263.828125 36.90625 263.722656 C 36.953125 263.828125 36.996094 263.9375 37.039062 264.042969 Z M 36.859375 263.609375 C 36.816406 263.503906 36.769531 263.398438 36.722656 263.296875 C 36.769531 263.398438 36.816406 263.503906 36.859375 263.609375 Z M 36.6875 263.214844 C 36.628906 263.089844 36.570312 262.960938 36.507812 262.835938 C 36.570312 262.960938 36.628906 263.089844 36.6875 263.214844 Z M 36.464844 262.746094 C 36.417969 262.644531 36.367188 262.546875 36.316406 262.449219 C 36.367188 262.546875 36.417969 262.644531 36.464844 262.746094 Z M 36.261719 262.339844 C 36.207031 262.230469 36.148438 262.121094 36.089844 262.011719 C 36.148438 262.121094 36.207031 262.230469 36.261719 262.339844 Z M 36.066406 261.96875 C 35.996094 261.84375 35.929688 261.722656 35.859375 261.597656 C 35.929688 261.722656 35.996094 261.84375 36.066406 261.96875 Z M 35.804688 261.503906 C 35.75 261.410156 35.695312 261.320312 35.640625 261.226562 C 35.695312 261.320312 35.75 261.410156 35.804688 261.503906 Z M 35.578125 261.125 C 35.507812 261.007812 35.4375 260.894531 35.363281 260.78125 C 35.4375 260.894531 35.507812 261.007812 35.578125 261.125 Z M 35.355469 260.765625 C 35.28125 260.652344 35.207031 260.535156 35.128906 260.421875 C 35.203125 260.535156 35.28125 260.652344 35.355469 260.765625 Z M 35.058594 260.316406 C 34.996094 260.230469 34.9375 260.144531 34.878906 260.058594 C 34.9375 260.144531 34.996094 260.230469 35.058594 260.316406 Z M 34.8125 259.964844 C 34.730469 259.851562 34.648438 259.742188 34.566406 259.628906 C 34.648438 259.742188 34.730469 259.851562 34.8125 259.964844 Z M 34.535156 259.585938 C 34.460938 259.488281 34.386719 259.390625 34.308594 259.296875 C 34.386719 259.390625 34.460938 259.488281 34.535156 259.585938 Z M 34.234375 259.199219 C 34.167969 259.113281 34.097656 259.03125 34.03125 258.945312 C 34.097656 259.03125 34.167969 259.113281 34.234375 259.199219 Z M 33.96875 258.867188 C 33.878906 258.761719 33.789062 258.65625 33.695312 258.550781 C 33.789062 258.652344 33.878906 258.761719 33.96875 258.867188 Z M 33.648438 258.492188 C 33.570312 258.40625 33.496094 258.320312 33.421875 258.238281 C 33.496094 258.320312 33.570312 258.40625 33.648438 258.492188 Z M 33.332031 258.140625 C 33.257812 258.058594 33.179688 257.976562 33.101562 257.894531 C 33.179688 257.976562 33.257812 258.058594 33.332031 258.140625 Z M 33.046875 257.835938 C 32.953125 257.734375 32.855469 257.636719 32.757812 257.539062 C 32.855469 257.636719 32.953125 257.734375 33.046875 257.835938 Z M 32.679688 257.460938 C 32.605469 257.386719 32.53125 257.316406 32.453125 257.242188 C 32.53125 257.3125 32.605469 257.386719 32.679688 257.460938 Z M 32.363281 257.15625 C 32.273438 257.070312 32.183594 256.984375 32.089844 256.898438 C 32.183594 256.984375 32.273438 257.070312 32.363281 257.15625 Z M 32.058594 256.871094 C 31.957031 256.777344 31.851562 256.6875 31.75 256.59375 C 31.851562 256.6875 31.957031 256.777344 32.058594 256.871094 Z M 31.660156 256.519531 C 31.578125 256.449219 31.5 256.382812 31.417969 256.3125 C 31.5 256.382812 31.578125 256.449219 31.660156 256.519531 Z M 30.996094 255.972656 C 30.890625 255.890625 30.78125 255.804688 30.671875 255.722656 C 30.78125 255.804688 30.890625 255.890625 30.996094 255.972656 Z M 30.570312 255.648438 C 30.488281 255.585938 30.402344 255.523438 30.316406 255.460938 C 30.402344 255.523438 30.488281 255.585938 30.570312 255.648438 Z M 30.226562 255.398438 C 30.113281 255.316406 30 255.238281 29.882812 255.160156 C 29.996094 255.238281 30.113281 255.316406 30.226562 255.398438 Z M 29.824219 255.125 C 29.730469 255.058594 29.632812 254.992188 29.53125 254.929688 C 29.632812 254.992188 29.730469 255.058594 29.824219 255.125 Z M 29.421875 254.859375 C 29.332031 254.800781 29.238281 254.742188 29.144531 254.683594 C 29.238281 254.742188 29.332031 254.800781 29.421875 254.859375 Z M 29.066406 254.636719 C 28.949219 254.566406 28.828125 254.496094 28.707031 254.425781 C 28.828125 254.496094 28.949219 254.566406 29.066406 254.636719 Z M 28.617188 254.375 C 28.523438 254.320312 28.429688 254.269531 28.332031 254.214844 C 28.429688 254.269531 28.523438 254.320312 28.617188 254.375 Z M 28.222656 254.15625 C 28.121094 254.101562 28.019531 254.046875 27.917969 253.996094 C 28.019531 254.046875 28.121094 254.101562 28.222656 254.15625 Z M 27.847656 253.957031 C 27.722656 253.894531 27.597656 253.832031 27.46875 253.769531 C 27.597656 253.832031 27.722656 253.894531 27.847656 253.957031 Z M 27.375 253.726562 C 27.277344 253.679688 27.179688 253.632812 27.082031 253.589844 C 27.179688 253.632812 27.277344 253.679688 27.375 253.726562 Z M 26.96875 253.535156 C 26.851562 253.484375 26.738281 253.433594 26.621094 253.386719 C 26.738281 253.433594 26.851562 253.484375 26.96875 253.535156 Z M 26.578125 253.367188 C 26.449219 253.3125 26.316406 253.257812 26.1875 253.207031 C 26.320312 253.257812 26.449219 253.3125 26.578125 253.367188 Z M 26.082031 253.164062 C 25.976562 253.125 25.875 253.085938 25.769531 253.046875 C 25.875 253.085938 25.976562 253.125 26.082031 253.164062 Z M 25.667969 253.007812 C 25.53125 252.960938 25.398438 252.910156 25.261719 252.867188 C 25.398438 252.910156 25.53125 252.960938 25.667969 253.007812 Z M 25.234375 252.855469 C 25.109375 252.816406 24.984375 252.773438 24.859375 252.734375 C 24.984375 252.773438 25.109375 252.816406 25.234375 252.855469 Z M 24.734375 252.695312 C 24.632812 252.664062 24.53125 252.632812 24.429688 252.605469 C 24.53125 252.632812 24.632812 252.664062 24.734375 252.695312 Z M 24.3125 252.570312 C 24.175781 252.535156 24.039062 252.496094 23.902344 252.460938 C 24.039062 252.496094 24.175781 252.535156 24.3125 252.570312 Z M 23.835938 252.445312 C 23.71875 252.414062 23.597656 252.386719 23.480469 252.359375 C 23.597656 252.386719 23.71875 252.414062 23.835938 252.445312 Z M 23.359375 252.328125 C 23.246094 252.304688 23.128906 252.28125 23.015625 252.253906 C 23.132812 252.28125 23.246094 252.304688 23.359375 252.328125 Z M 22.929688 252.238281 C 22.789062 252.207031 22.644531 252.179688 22.5 252.15625 C 22.644531 252.179688 22.789062 252.207031 22.929688 252.238281 Z M 22.410156 252.140625 C 22.296875 252.121094 22.183594 252.101562 22.066406 252.082031 C 22.183594 252.101562 22.296875 252.121094 22.410156 252.140625 Z M 21.9375 252.0625 C 21.816406 252.042969 21.691406 252.027344 21.566406 252.011719 C 21.691406 252.027344 21.816406 252.042969 21.9375 252.0625 Z M 21.503906 252.003906 C 21.359375 251.984375 21.210938 251.96875 21.0625 251.953125 C 21.210938 251.96875 21.359375 251.984375 21.503906 252.003906 Z M 20.957031 251.941406 C 20.84375 251.929688 20.730469 251.921875 20.617188 251.910156 C 20.730469 251.921875 20.84375 251.929688 20.957031 251.941406 Z M 20.488281 251.902344 C 20.347656 251.890625 20.203125 251.882812 20.058594 251.875 C 20.203125 251.882812 20.347656 251.890625 20.488281 251.902344 Z M 149.5625 27.898438 C 149.601562 27.976562 149.640625 28.054688 149.679688 28.132812 C 149.640625 28.054688 149.601562 27.976562 149.5625 27.898438 Z M 150.070312 28.855469 C 150.09375 28.894531 150.117188 28.929688 150.136719 28.96875 Z M 167.019531 26.574219 C 171.089844 26.574219 174.386719 23.277344 174.386719 19.210938 C 174.386719 15.140625 171.089844 11.84375 167.019531 11.84375 C 162.953125 11.84375 159.65625 15.140625 159.65625 19.210938 C 159.65625 23.277344 162.953125 26.574219 167.019531 26.574219 Z M 167.015625 38.5625 C 166.90625 38.5625 166.796875 38.5625 166.6875 38.5625 L 166.679688 38.5625 C 166.570312 38.558594 166.464844 38.554688 166.355469 38.550781 L 166.347656 38.550781 C 166.238281 38.550781 166.132812 38.542969 166.023438 38.539062 L 166.019531 38.539062 C 165.910156 38.535156 165.800781 38.527344 165.695312 38.519531 L 165.6875 38.519531 C 165.582031 38.511719 165.472656 38.503906 165.367188 38.496094 L 165.363281 38.492188 C 165.253906 38.484375 165.148438 38.476562 165.042969 38.464844 L 165.035156 38.464844 C 164.929688 38.453125 164.824219 38.441406 164.714844 38.429688 L 164.710938 38.425781 C 164.605469 38.414062 164.5 38.402344 164.394531 38.386719 L 164.386719 38.386719 C 164.28125 38.371094 164.175781 38.355469 164.070312 38.339844 L 164.066406 38.339844 C 163.960938 38.324219 163.855469 38.308594 163.753906 38.289062 L 163.75 38.289062 C 163.644531 38.269531 163.539062 38.253906 163.433594 38.230469 L 163.429688 38.230469 C 163.328125 38.210938 163.222656 38.191406 163.117188 38.171875 Z M 34.890625 256.367188 L 34.894531 256.371094 L 34.898438 256.371094 C 35.007812 256.457031 35.113281 256.546875 35.222656 256.632812 L 35.3125 256.707031 Z M 34.890625 256.367188 " fill-opacity="1" fill-rule="nonzero"/><g fill="#55beff" fill-opacity="1"><g transform="translate(366.950881, 127.955548)"><g><path d="M 59.28125 -126.859375 C 75.238281 -126.859375 83.21875 -118.359375 83.21875 -101.359375 L 83.21875 0 L 56.1875 0 L 56.1875 -41.890625 L 36.6875 -41.890625 L 36.6875 0 L 9.65625 0 L 9.65625 -101.359375 C 9.65625 -118.359375 17.632812 -126.859375 33.59375 -126.859375 Z M 36.6875 -62.75 L 56.1875 -62.75 L 56.1875 -104.640625 C 56.1875 -105.671875 55.832031 -106.570312 55.125 -107.34375 C 54.414062 -108.125 53.546875 -108.515625 52.515625 -108.515625 L 40.359375 -108.515625 C 39.328125 -108.515625 38.457031 -108.125 37.75 -107.34375 C 37.039062 -106.570312 36.6875 -105.671875 36.6875 -104.640625 Z M 36.6875 -62.75 "/></g></g></g><g fill="#55beff" fill-opacity="1"><g transform="translate(457.697751, 127.955548)"><g><path d="M 2.515625 -101.9375 L 2.515625 -124.921875 L 70.09375 -124.921875 L 70.09375 -101.9375 L 49.8125 -101.9375 L 49.8125 0 L 22.78125 0 L 22.78125 -101.9375 Z M 2.515625 -101.9375 "/></g></g></g><g fill="#55beff" fill-opacity="1"><g transform="translate(527.592121, 127.955548)"><g><path d="M 2.515625 -101.9375 L 2.515625 -124.921875 L 70.09375 -124.921875 L 70.09375 -101.9375 L 49.8125 -101.9375 L 49.8125 0 L 22.78125 0 L 22.78125 -101.9375 Z M 2.515625 -101.9375 "/></g></g></g><g fill="#55beff" fill-opacity="1"><g transform="translate(597.486478, 127.955548)"><g><path d="M 59.28125 -126.859375 C 75.238281 -126.859375 83.21875 -118.359375 83.21875 -101.359375 L 83.21875 0 L 56.1875 0 L 56.1875 -41.890625 L 36.6875 -41.890625 L 36.6875 0 L 9.65625 0 L 9.65625 -101.359375 C 9.65625 -118.359375 17.632812 -126.859375 33.59375 -126.859375 Z M 36.6875 -62.75 L 56.1875 -62.75 L 56.1875 -104.640625 C 56.1875 -105.671875 55.832031 -106.570312 55.125 -107.34375 C 54.414062 -108.125 53.546875 -108.515625 52.515625 -108.515625 L 40.359375 -108.515625 C 39.328125 -108.515625 38.457031 -108.125 37.75 -107.34375 C 37.039062 -106.570312 36.6875 -105.671875 36.6875 -104.640625 Z M 36.6875 -62.75 "/></g></g></g><g fill="#55beff" fill-opacity="1"><g transform="translate(688.233337, 127.955548)"><g><path d="M 56.1875 -20.46875 L 56.1875 -39.78125 L 81.859375 -39.78125 L 81.859375 -23.5625 C 81.859375 -6.5625 73.878906 1.9375 57.921875 1.9375 L 33.59375 1.9375 C 17.632812 1.9375 9.65625 -6.5625 9.65625 -23.5625 L 9.65625 -101.359375 C 9.65625 -118.359375 17.632812 -126.859375 33.59375 -126.859375 L 57.921875 -126.859375 C 73.878906 -126.859375 81.859375 -118.359375 81.859375 -101.359375 L 81.859375 -89.59375 L 56.1875 -89.59375 L 56.1875 -104.640625 C 56.1875 -105.671875 55.832031 -106.570312 55.125 -107.34375 C 54.414062 -108.125 53.546875 -108.515625 52.515625 -108.515625 L 40.359375 -108.515625 C 39.328125 -108.515625 38.457031 -108.125 37.75 -107.34375 C 37.039062 -106.570312 36.6875 -105.671875 36.6875 -104.640625 L 36.6875 -20.46875 C 36.6875 -19.4375 37.039062 -18.535156 37.75 -17.765625 C 38.457031 -16.992188 39.328125 -16.609375 40.359375 -16.609375 L 52.515625 -16.609375 C 53.546875 -16.609375 54.414062 -16.992188 55.125 -17.765625 C 55.832031 -18.535156 56.1875 -19.4375 56.1875 -20.46875 Z M 56.1875 -20.46875 "/></g></g></g><g fill="#55beff" fill-opacity="1"><g transform="translate(773.767108, 127.955548)"><g><path d="M 87.46875 -124.921875 L 66.21875 -67.578125 L 91.515625 0 L 63.90625 0 L 45.375 -49.421875 L 36.6875 -49.421875 L 36.6875 0 L 9.65625 0 L 9.65625 -124.921875 L 36.6875 -124.921875 L 36.6875 -72.59375 L 43.25 -72.59375 L 62.75 -124.921875 Z M 87.46875 -124.921875 "/></g></g></g><g fill="#55beff" fill-opacity="1"><g transform="translate(862.00398, 127.955548)"><g><path d="M 36.6875 -22.390625 L 66.609375 -22.390625 L 66.609375 0 L 9.65625 0 L 9.65625 -124.921875 L 66.609375 -124.921875 L 66.609375 -102.90625 L 36.6875 -102.90625 L 36.6875 -73.5625 L 64.6875 -73.5625 L 64.6875 -52.328125 L 36.6875 -52.328125 Z M 36.6875 -22.390625 "/></g></g></g><g fill="#55beff" fill-opacity="1"><g transform="translate(931.705283, 127.955548)"><g><path d="M 36.6875 -51.171875 L 36.6875 0 L 9.65625 0 L 9.65625 -124.921875 L 57.734375 -124.921875 C 73.691406 -124.921875 81.671875 -116.425781 81.671875 -99.4375 L 81.671875 -84.953125 C 81.671875 -74.660156 78.003906 -68.097656 70.671875 -65.265625 C 77.109375 -62.941406 80.328125 -57.660156 80.328125 -49.421875 L 80.328125 0 L 53.296875 0 L 53.296875 -47.296875 C 53.296875 -49.878906 52.070312 -51.171875 49.625 -51.171875 Z M 36.6875 -106.578125 L 36.6875 -70.09375 L 50.96875 -70.09375 C 52 -70.09375 52.867188 -70.476562 53.578125 -71.25 C 54.285156 -72.019531 54.640625 -72.921875 54.640625 -73.953125 L 54.640625 -102.71875 C 54.640625 -103.75 54.285156 -104.648438 53.578125 -105.421875 C 52.867188 -106.191406 52 -106.578125 50.96875 -106.578125 Z M 36.6875 -106.578125 "/></g></g></g><g fill="#55beff" fill-opacity="1"><g transform="translate(546.101227, 296.284399)"><g><path d="M 59.1875 -126.671875 C 75.132812 -126.671875 83.109375 -118.1875 83.109375 -101.21875 L 83.109375 0 L 56.109375 0 L 56.109375 -41.84375 L 36.640625 -41.84375 L 36.640625 0 L 9.640625 0 L 9.640625 -101.21875 C 9.640625 -118.1875 17.609375 -126.671875 33.546875 -126.671875 Z M 36.640625 -62.65625 L 56.109375 -62.65625 L 56.109375 -104.5 C 56.109375 -105.53125 55.753906 -106.429688 55.046875 -107.203125 C 54.335938 -107.972656 53.46875 -108.359375 52.4375 -108.359375 L 40.296875 -108.359375 C 39.265625 -108.359375 38.394531 -107.972656 37.6875 -107.203125 C 36.988281 -106.429688 36.640625 -105.53125 36.640625 -104.5 Z M 36.640625 -62.65625 "/></g></g></g><g fill="#55beff" fill-opacity="1"><g transform="translate(636.72526, 296.284399)"><g><path d="M 2.5 -101.8125 L 2.5 -124.75 L 69.984375 -124.75 L 69.984375 -101.8125 L 49.75 -101.8125 L 49.75 0 L 22.75 0 L 22.75 -101.8125 Z M 2.5 -101.8125 "/></g></g></g><g fill="#55beff" fill-opacity="1"><g transform="translate(706.525042, 296.284399)"><g><path d="M 2.5 -101.8125 L 2.5 -124.75 L 69.984375 -124.75 L 69.984375 -101.8125 L 49.75 -101.8125 L 49.75 0 L 22.75 0 L 22.75 -101.8125 Z M 2.5 -101.8125 "/></g></g></g><g fill="#55beff" fill-opacity="1"><g transform="translate(776.324818, 296.284399)"><g><path d="M 59.1875 -126.671875 C 75.132812 -126.671875 83.109375 -118.1875 83.109375 -101.21875 L 83.109375 0 L 56.109375 0 L 56.109375 -41.84375 L 36.640625 -41.84375 L 36.640625 0 L 9.640625 0 L 9.640625 -101.21875 C 9.640625 -118.1875 17.609375 -126.671875 33.546875 -126.671875 Z M 36.640625 -62.65625 L 56.109375 -62.65625 L 56.109375 -104.5 C 56.109375 -105.53125 55.753906 -106.429688 55.046875 -107.203125 C 54.335938 -107.972656 53.46875 -108.359375 52.4375 -108.359375 L 40.296875 -108.359375 C 39.265625 -108.359375 38.394531 -107.972656 37.6875 -107.203125 C 36.988281 -106.429688 36.640625 -105.53125 36.640625 -104.5 Z M 36.640625 -62.65625 "/></g></g></g><g fill="#55beff" fill-opacity="1"><g transform="translate(866.948857, 296.284399)"><g><path d="M 56.109375 -20.4375 L 56.109375 -39.71875 L 81.75 -39.71875 L 81.75 -23.515625 C 81.75 -6.554688 73.78125 1.921875 57.84375 1.921875 L 33.546875 1.921875 C 17.609375 1.921875 9.640625 -6.554688 9.640625 -23.515625 L 9.640625 -101.21875 C 9.640625 -118.1875 17.609375 -126.671875 33.546875 -126.671875 L 57.84375 -126.671875 C 73.78125 -126.671875 81.75 -118.1875 81.75 -101.21875 L 81.75 -89.46875 L 56.109375 -89.46875 L 56.109375 -104.5 C 56.109375 -105.53125 55.753906 -106.429688 55.046875 -107.203125 C 54.335938 -107.972656 53.46875 -108.359375 52.4375 -108.359375 L 40.296875 -108.359375 C 39.265625 -108.359375 38.394531 -107.972656 37.6875 -107.203125 C 36.988281 -106.429688 36.640625 -105.53125 36.640625 -104.5 L 36.640625 -20.4375 C 36.640625 -19.40625 36.988281 -18.503906 37.6875 -17.734375 C 38.394531 -16.960938 39.265625 -16.578125 40.296875 -16.578125 L 52.4375 -16.578125 C 53.46875 -16.578125 54.335938 -16.960938 55.046875 -17.734375 C 55.753906 -18.503906 56.109375 -19.40625 56.109375 -20.4375 Z M 56.109375 -20.4375 "/></g></g></g><g fill="#55beff" fill-opacity="1"><g transform="translate(952.366819, 296.284399)"><g><path d="M 87.34375 -124.75 L 66.140625 -67.484375 L 91.390625 0 L 63.828125 0 L 45.3125 -49.359375 L 36.640625 -49.359375 L 36.640625 0 L 9.640625 0 L 9.640625 -124.75 L 36.640625 -124.75 L 36.640625 -72.5 L 43.1875 -72.5 L 62.65625 -124.75 Z M 87.34375 -124.75 "/></g></g></g><g fill="#55beff" fill-opacity="1"><g transform="translate(1040.484213, 296.284399)"><g><path d="M 36.640625 -22.359375 L 66.515625 -22.359375 L 66.515625 0 L 9.640625 0 L 9.640625 -124.75 L 66.515625 -124.75 L 66.515625 -102.765625 L 36.640625 -102.765625 L 36.640625 -73.46875 L 64.59375 -73.46875 L 64.59375 -52.25 L 36.640625 -52.25 Z M 36.640625 -22.359375 "/></g></g></g><g fill="#55beff" fill-opacity="1"><g transform="translate(1110.091201, 296.284399)"><g><path d="M 36.640625 -51.09375 L 36.640625 0 L 9.640625 0 L 9.640625 -124.75 L 57.65625 -124.75 C 73.59375 -124.75 81.5625 -116.265625 81.5625 -99.296875 L 81.5625 -84.84375 C 81.5625 -74.550781 77.894531 -67.992188 70.5625 -65.171875 C 76.988281 -62.859375 80.203125 -57.585938 80.203125 -49.359375 L 80.203125 0 L 53.21875 0 L 53.21875 -47.234375 C 53.21875 -49.804688 51.992188 -51.09375 49.546875 -51.09375 Z M 36.640625 -106.4375 L 36.640625 -69.984375 L 50.90625 -69.984375 C 51.925781 -69.984375 52.789062 -70.367188 53.5 -71.140625 C 54.207031 -71.910156 54.5625 -72.8125 54.5625 -73.84375 L 54.5625 -102.578125 C 54.5625 -103.609375 54.207031 -104.507812 53.5 -105.28125 C 52.789062 -106.050781 51.925781 -106.4375 50.90625 -106.4375 Z M 36.640625 -106.4375 "/></g></g></g></svg>